HIERARCHY
ROOT Hips
{
 OFFSET 0.000000 0.000000 0.000000
 CHANNELS 6 Xposition Yposition Zposition Yrotation Xrotation Zrotation
 JOINT Chest
 {
  OFFSET 0.000000 9.585900 0.002600
  CHANNELS 3 Yrotation Xrotation Zrotation
  JOINT Chest2
  {
   OFFSET 0.000000 9.601200 -0.005300
   CHANNELS 3 Yrotation Xrotation Zrotation
   JOINT Chest3
   {
    OFFSET 0.000000 9.561800 0.000000
    CHANNELS 3 Yrotation Xrotation Zrotation
    JOINT Chest4
    {
     OFFSET 0.000000 9.552100 0.000000
     CHANNELS 3 Yrotation Xrotation Zrotation
     JOINT Neck
     {
      OFFSET 0.000000 14.453000 0.000000
      CHANNELS 3 Yrotation Xrotation Zrotation
      JOINT Head
      {
       OFFSET 0.000000 8.936500 -0.011300
       CHANNELS 3 Yrotation Xrotation Zrotation
       End Site
       {
        OFFSET 0.000000 17.073600 -0.006000
       }
      }
     }
     JOINT RightCollar
     {
      OFFSET -2.921100 9.558500 0.000000
      CHANNELS 3 Yrotation Xrotation Zrotation
      JOINT RightShoulder
      {
       OFFSET -13.519700 0.000000 0.000000
       CHANNELS 3 Yrotation Xrotation Zrotation
       JOINT RightElbow
       {
        OFFSET 0.000000 -29.696600 0.000000
        CHANNELS 3 Yrotation Xrotation Zrotation
        JOINT RightWrist
        {
         OFFSET 0.000000 -24.004700 0.000000
         CHANNELS 3 Yrotation Xrotation Zrotation
         End Site
         {
          OFFSET 0.000000 -17.728500 0.000000
         }
        }
       }
      }
     }
     JOINT LeftCollar
     {
      OFFSET 2.921100 9.558500 0.000000
      CHANNELS 3 Yrotation Xrotation Zrotation
      JOINT LeftShoulder
      {
       OFFSET 13.519700 0.000000 0.000000
       CHANNELS 3 Yrotation Xrotation Zrotation
       JOINT LeftElbow
       {
        OFFSET 0.000000 -29.696600 0.000000
        CHANNELS 3 Yrotation Xrotation Zrotation
        JOINT LeftWrist
        {
         OFFSET 0.000000 -24.004700 0.000000
         CHANNELS 3 Yrotation Xrotation Zrotation
         End Site
         {
          OFFSET 0.000000 -17.728500 0.000000
         }
        }
       }
      }
     }
    }
   }
  }
 }
 JOINT RightHip
 {
  OFFSET -7.771700 -0.012900 -0.001300
  CHANNELS 3 Yrotation Xrotation Zrotation
  JOINT RightKnee
  {
   OFFSET 0.000000 -40.869800 0.001200
   CHANNELS 3 Yrotation Xrotation Zrotation
   JOINT RightAnkle
   {
    OFFSET 0.000000 -39.717900 0.002100
    CHANNELS 3 Yrotation Xrotation Zrotation
    JOINT RightToe
    {
     OFFSET 0.000000 -4.965400 11.033500
     CHANNELS 3 Yrotation Xrotation Zrotation
     End Site
     {
      OFFSET 0.000000 -1.423100 5.872300
     }
    }
   }
  }
 }
 JOINT LeftHip
 {
  OFFSET 7.771700 -0.012900 -0.001300
  CHANNELS 3 Yrotation Xrotation Zrotation
  JOINT LeftKnee
  {
   OFFSET 0.000000 -40.869800 0.001200
   CHANNELS 3 Yrotation Xrotation Zrotation
   JOINT LeftAnkle
   {
    OFFSET 0.000000 -39.717900 0.002100
    CHANNELS 3 Yrotation Xrotation Zrotation
    JOINT LeftToe
    {
     OFFSET 0.000000 -4.965400 11.033500
     CHANNELS 3 Yrotation Xrotation Zrotation
     End Site
     {
      OFFSET 0.000000 -1.423100 5.872300
     }
    }
   }
  }
 }
}
MOTION
Frames: 13
Frame Time: 0.008333
-42.971705 43.935259 31.490315 176.575769 -22.408654 -0.701131 0.129917 16.966282 3.820744 -0.047368 1.832324 0.464283 -0.085679 3.048558 0.758582 0.045645 14.916945 3.801474 -1.136306 19.112362 -2.843423 -0.624882 -5.358208 -2.742394 7.463598 1.113316 -2.880100 -7.455144 -9.584071 -0.657452 -86.493138 -82.527161 97.896915 -7.654634 -2.065363 -48.493846 -17.629765 -0.632897 -5.055177 16.270256 -5.491374 -3.040822 166.896788 -82.065990 -174.782520 17.309724 -8.626211 55.561285 -0.732801 -70.072715 11.037547 -150.444606 69.225402 -150.063918 -14.869959 -23.763324 9.768524 0.361900 -0.978273 0.169927 6.640028 -58.711200 -5.760801 176.165534 62.874207 176.878439 -2.612817 -36.283350 4.274287 0.004415 0.119332 -0.001135
-42.968558 43.934286 31.488226 176.568030 -22.399626 -0.690539 0.122155 16.962219 3.803442 -0.048538 1.831246 0.461631 -0.078680 3.046790 0.759742 0.046582 14.915805 3.799841 -1.164929 19.182926 -2.839283 -0.636378 -5.295112 -2.725789 7.461681 1.121572 -2.881856 -7.458445 -9.599441 -0.681229 -86.412453 -82.426716 97.836437 -7.697173 -2.084128 -48.458851 -17.611136 -0.616431 -5.116476 16.323876 -5.505554 -3.025152 161.585255 -81.959868 -169.704568 17.534975 -8.738413 55.708145 -0.724360 -70.085963 11.035696 -150.465535 69.221552 -150.086657 -14.857398 -23.771174 9.755562 0.360812 -0.980020 0.171044 6.652270 -58.715269 -5.761812 176.178723 62.874594 176.884863 -2.617607 -36.288751 4.278520 0.004561 0.120161 0.000359
-42.965514 43.933511 31.485484 176.566776 -22.393958 -0.678875 0.101045 16.975436 3.767301 -0.050132 1.829161 0.456606 -0.061987 3.033314 0.775821 0.031157 14.915894 3.772105 -1.170386 19.245919 -2.817192 -0.653572 -5.243031 -2.713699 7.438821 1.167008 -2.893324 -7.424034 -9.646439 -0.641108 -86.400018 -82.400275 97.827661 -7.724376 -2.091462 -48.441195 -17.583938 -0.604197 -5.115720 16.388448 -5.500293 -3.043426 156.903716 -81.807797 -165.226616 17.738955 -8.831584 55.831908 -0.742253 -70.100014 11.053878 -150.498380 69.214208 -150.122195 -14.878350 -23.762355 9.740463 0.390049 -0.997182 0.179433 6.659297 -58.716033 -5.766235 176.190088 62.875353 176.888190 -2.622205 -36.291913 4.280694 0.004416 0.119656 0.001938
-42.962906 43.931855 31.485062 176.559752 -22.372757 -0.661629 0.092904 16.965310 3.733748 -0.048628 1.825472 0.459340 -0.079097 3.043615 0.749804 0.039271 14.908057 3.775574 -1.178620 19.297704 -2.803367 -0.664664 -5.206533 -2.709450 7.456181 1.169116 -2.879344 -7.427952 -9.654896 -0.651504 -86.375006 -82.323587 97.821589 -7.710875 -2.097195 -48.429215 -17.554206 -0.601548 -5.096729 16.453167 -5.488739 -3.077409 152.964267 -81.635073 -161.449583 17.914955 -8.905416 55.919214 -0.740911 -70.127571 11.052842 -150.515073 69.211219 -150.146638 -14.874936 -23.758793 9.732230 0.380123 -1.006821 0.176246 6.687599 -58.733615 -5.788259 176.192180 62.876800 176.886509 -2.626889 -36.291035 4.282252 0.003355 0.118416 0.002607
-42.959125 43.930155 31.485340 176.547119 -22.347329 -0.648828 0.093599 16.952715 3.704732 -0.042672 1.815182 0.472675 -0.086914 3.051716 0.730316 0.029036 14.904694 3.758944 -1.186161 19.340198 -2.792137 -0.673607 -5.177369 -2.706956 7.472993 1.171968 -2.860615 -7.469039 -9.638364 -0.679307 -86.531280 -82.249326 98.033481 -7.727487 -2.103845 -48.407233 -17.521450 -0.593213 -5.104124 16.502433 -5.487528 -3.081396 149.821565 -81.470923 -158.425262 18.062822 -8.962542 55.968433 -0.755625 -70.157308 11.078975 -150.509439 69.212951 -150.147480 -14.901396 -23.746314 9.733230 0.369814 -1.014073 0.170413 6.689481 -58.757099 -5.772802 176.217738 62.877855 176.893519 -2.638408 -36.293617 4.292494 0.002744 0.119626 0.002647
-42.952804 43.930164 31.482353 176.547600 -22.343685 -0.655134 0.087509 16.965188 3.689151 -0.042655 1.811296 0.471963 -0.086891 3.053047 0.724643 0.022624 14.902527 3.742172 -1.236574 19.402923 -2.823471 -0.646481 -5.191097 -2.680259 7.473104 1.181713 -2.857482 -7.467971 -9.649728 -0.654564 -86.537735 -82.268123 98.048295 -7.766551 -2.127588 -48.386570 -17.497540 -0.585136 -5.105137 16.548628 -5.487203 -3.088243 147.524197 -81.340984 -156.201372 18.185811 -9.001676 55.987503 -0.859026 -70.155885 11.192363 -150.449714 69.207372 -150.112584 -14.925429 -23.732790 9.737753 0.373326 -1.023755 0.170273 6.648439 -58.759514 -5.719914 176.253719 62.875686 176.910336 -2.647864 -36.299281 4.301935 0.002563 0.119747 0.002525
-42.945654 43.929486 31.481802 176.542134 -22.324570 -0.665856 0.088199 16.964821 3.677509 -0.050629 1.825456 0.447276 -0.076381 3.036179 0.743279 0.007223 14.912605 3.681005 -1.205020 19.403057 -2.766741 -0.654538 -5.176519 -2.676336 7.492501 1.165855 -2.820159 -7.475685 -9.652380 -0.623146 -86.598400 -82.305444 98.112764 -7.789871 -2.141954 -48.367718 -17.466244 -0.575710 -5.081343 16.567542 -5.502426 -3.053029 145.983069 -81.260082 -154.662865 18.283601 -9.022560 55.980905 -0.932877 -70.173053 11.274572 -150.425371 69.209332 -150.093729 -14.924947 -23.719559 9.728157 0.372666 -1.034622 0.169720 6.610505 -58.780625 -5.661357 176.290674 62.872935 176.932177 -2.661739 -36.304876 4.314568 0.003103 0.121992 0.001351
-42.936665 43.927670 31.485065 176.521744 -22.281666 -0.684783 0.109196 16.936692 3.684901 -0.048329 1.819927 0.452876 -0.080591 3.044207 0.726095 0.017729 14.902806 3.689516 -1.227264 19.415495 -2.788731 -0.662890 -5.170364 -2.674128 7.474167 1.188746 -2.889866 -7.494827 -9.648144 -0.556037 -86.782748 -82.346414 98.314354 -7.731184 -2.153157 -48.370250 -17.457631 -0.575812 -5.080901 16.584919 -5.498947 -3.053869 145.242534 -81.239385 -153.882220 18.344504 -9.025859 55.953006 -1.031025 -70.214183 11.397980 -150.333363 69.207368 -150.010148 -14.898299 -23.698442 9.715454 0.402883 -1.040016 0.171471 6.562644 -58.829936 -5.579271 176.323311 62.868300 176.948986 -2.663453 -36.313632 4.317441 0.002816 0.127068 0.000210
-42.930266 43.927149 31.485692 176.507904 -22.254544 -0.691944 0.123932 16.914472 3.690769 -0.049899 1.824323 0.445326 -0.080925 3.043779 0.724669 0.020553 14.900997 3.682854 -1.258342 19.426896 -2.823879 -0.671396 -5.170458 -2.672292 7.461984 1.192881 -2.912549 -7.522502 -9.591199 -0.581009 -87.273481 -82.356784 98.838200 -7.703075 -2.163840 -48.372144 -17.452689 -0.579682 -5.098280 16.612701 -5.489148 -3.052870 145.295775 -81.276081 -153.875318 18.359316 -9.013112 55.915326 -1.093237 -70.239559 11.477186 -150.255608 69.202627 -149.943462 -14.877268 -23.676782 9.708015 0.397830 -1.048218 0.171641 6.522789 -58.857682 -5.516333 176.356754 62.867257 176.961436 -2.668342 -36.322921 4.320366 0.002960 0.130580 0.001890
-42.924879 43.927173 31.485686 176.494837 -22.231113 -0.695850 0.128952 16.913000 3.671730 -0.049222 1.823393 0.443156 -0.074209 3.032831 0.736679 0.015081 14.909096 3.651951 -1.245537 19.416945 -2.802189 -0.690571 -5.172475 -2.690339 7.461081 1.184581 -2.914656 -7.532255 -9.569734 -0.576456 -87.500841 -82.358543 99.082447 -7.655470 -2.171163 -48.371476 -17.436625 -0.588326 -5.094319 16.630645 -5.481232 -3.044577 145.918719 -81.353506 -154.406883 18.335752 -8.987011 55.874551 -1.146828 -70.261897 11.545156 -150.188092 69.199505 -149.885610 -14.867919 -23.648199 9.703896 0.379100 -1.045176 0.169087 6.473938 -58.881230 -5.444192 176.406520 62.867060 176.980726 -2.685118 -36.329145 4.336234 0.005115 0.132214 0.001456
-42.920989 43.927541 31.485489 176.493563 -22.208298 -0.698445 0.125346 16.925985 3.628215 -0.047535 1.807196 0.459854 -0.073073 3.031527 0.732790 0.017896 14.908315 3.634686 -1.232346 19.406431 -2.776757 -0.706067 -5.179895 -2.710808 7.462566 1.176201 -2.913566 -7.545574 -9.550085 -0.575410 -87.695141 -82.414653 99.287056 -7.670000 -2.186241 -48.354007 -17.428705 -0.599840 -5.134976 16.665688 -5.454791 -3.005795 147.187423 -81.443387 -155.586254 18.289070 -8.954634 55.837389 -1.191897 -70.283659 11.591127 -150.151900 69.197952 -149.858480 -14.862838 -23.620649 9.703560 0.378066 -1.061265 0.164470 6.467779 -58.902435 -5.433973 176.403484 62.867862 176.978088 -2.693745 -36.330521 4.338568 0.005042 0.131614 0.000222
-42.917615 43.927688 31.486540 176.488285 -22.177454 -0.700529 0.131232 16.900153 3.626149 -0.048193 1.821007 0.438790 -0.075328 3.037640 0.712536 0.027324 14.896679 3.636108 -1.267624 19.402550 -2.829926 -0.681619 -5.196241 -2.671686 7.457931 1.169115 -2.913886 -7.560545 -9.530180 -0.578462 -87.865032 -82.461867 99.468379 -7.688715 -2.200159 -48.327797 -17.424627 -0.602316 -5.132851 16.680633 -5.441712 -2.982640 148.595580 -81.550765 -156.874058 18.235736 -8.928115 55.815390 -1.233108 -70.312206 11.634915 -150.121226 69.198556 -149.836788 -14.845702 -23.606164 9.698470 0.376263 -1.065425 0.161417 6.441173 -58.933915 -5.401170 176.419991 62.869424 176.979923 -2.701639 -36.330614 4.342246 0.005417 0.131264 0.000254
-42.914166 43.928226 31.487313 176.478516 -22.148611 -0.705143 0.138688 16.891434 3.606770 -0.047599 1.819923 0.436248 -0.071457 3.027358 0.725244 0.022474 14.903592 3.601395 -1.266401 19.392360 -2.830012 -0.678554 -5.209578 -2.675629 7.463518 1.153159 -2.889418 -7.584804 -9.510032 -0.609735 -88.011633 -82.483533 99.632247 -7.713298 -2.210906 -48.300716 -17.421027 -0.606684 -5.128230 16.696221 -5.434318 -2.950176 150.120532 -81.659910 -158.279369 18.185767 -8.911667 55.805827 -1.283104 -70.338280 11.689758 -150.087530 69.199983 -149.808255 -14.833128 -23.593460 9.689807 0.360445 -1.058130 0.158476 6.417572 -58.963005 -5.363614 176.443270 62.870188 176.989958 -2.706915 -36.329836 4.347305 0.006608 0.129238 0.000117
